
<svg xmlns="http://www.w3.org/2000/svg" viewBox="0 0 24 24" width="24" height="24" aria-label="Apple Safari"><path fill="currentColor" d="M12 0a12 12 0 1 0 12 12A12 12 0 0 0 12 0Zm0 22.5A10.5 10.5 0 1 1 22.5 12 10.5 10.5 0 0 1 12 22.5Zm0-19.7v1.6a.5.5 0 0 1-1 0V2.8a.5.5 0 0 1 1 0Zm0 17.3v1.6a.5.5 0 0 1-1 0v-1.6a.5.5 0 0 1 1 0Zm-9.7-8.6h1.6a.5.5 0 0 1 0 1H2.3a.5.5 0 0 1 0-1Zm17.3 0h1.6a.5.5 0 0 1 0 1h-1.6a.5.5 0 0 1 0-1ZM13.4 10.6l4.3-6.5a.5.5 0 0 1 .77.6l-3.4 7.2a2 2 0 1 1-1.67-1.3ZM10.6 13.4l-4.3 6.5a.5.5 0 0 1-.77-.6l3.4-7.2a2 2 0 1 1 1.67 1.3Z"></path></svg>