
<svg xmlns="http://www.w3.org/2000/svg" viewBox="0 0 24 24" width="24" height="24" aria-label="Mozilla Firefox"><path fill="currentColor" d="M22.4 6.84q-.62-1.35-1.46-2.32-.27-.31-.43-.27-.16.03-.19.34-.06 1-.6 1.93Q19 5.27 17.66 4q-.92-.86-1.85-1.36-1.94-1.05-3.6-.65-.36.09-.36.45 0 .29.27.5 1.13.85 1.66 2.3.13.34-.18.51-1.46.83-2.65 2.21-1.13 1.32-1.65 2.74-.07.18-.06.38l.03.34q0 .17-.16.17-.16 0-.18-.17l-.04-.6q0-.27-.27-.27-.43 0-.93.6-.7.83-1 2.06-.46 1.84.13 3.7-.4-.4-.66-.92-.86-1.66-.34-3.51.18-.62-.05-.78-.21-.16-.42.13-1.6 1.18-1.65 4.18-.16.27-.32.21-.59-.22-.85-.84-.13-.32-.04-.7.27-1.13 1.69-1.78.27-.13.22-.42-.05-.29-.34-.32-2.59-.25-3.85 2.05-.99 1.79-.42 4.16-.16-.36-.29-.74-.85-2.51.2-5.27 1.5-3.95 5.79-5 .31-.08.31-.4 0-.32-.32-.36-1.93-.23-3.7.59-.34.16-.4-.21Q5.99 4.7 7.96 3.39 10.94 1.4 14.31 2.4 14.6 2.49 14.7 2.2q.1-.28-.13-.46-.32-.25-.66-.45.71-.06 1.4.03 4.07.57 6.62 4 1.06 1.42 1.45 3.13.39 1.7-.04 3.39-.46 1.83-1.86 3.18-2.36 2.28-5.94 2.06-2.06-.13-3.94-1.16-.85-.46-1.36-1.18-.4-.55-.41-.95 0-.51.69-.5.34 0 .77.32 1.62 1.21 3.7 1.08 1.83-.12 3.26-1.18 1.4-1.05 1.95-2.78.55-1.74 0-3.5-.32-1.03-.99-1.8-.66-.78-1.59-1.18-.27-.13-.27.13 0 .27.13.4 1.05 1 1.45 2.42.4 1.4-.1 2.79-.51 1.4-1.76 2.38-1.55 1.21-3.59 1.21-2 0-3.49-1.2-.32-.27-.51-.27-.4 0-.4.45 0 .39.31.78 1.45 1.83 4.05 2.04 2.59.22 4.86-1.16Q21.93 12.5 22.46 9.5q.27-1.34.06-2.66Z"></path></svg>