
<svg xmlns="http://www.w3.org/2000/svg" viewBox="0 0 24 24" width="24" height="24" aria-label="Microsoft Edge"><path fill="currentColor" d="M21.86 17.86q.14 0 .25.12.1.13.1.25 0 .24-.4.79-.4.54-1.22 1.15-.83.6-2.16 1.06-1.34.45-3.12.45-1.7 0-3.27-.6-1.55-.59-2.72-1.65-1.17-1.07-1.86-2.55-.68-1.48-.68-3.27 0-1.43.43-2.65.43-1.22 1.13-2.18.7-.96 1.61-1.66.92-.7 1.91-1.13.99-.43 2-.65 1.01-.22 1.93-.22.83 0 1.76.27.94.27 1.74.85.8.59 1.39 1.55.59.95.71 2.34l-.05.13q-.6.16-1.18.4t-1.13.62q-.55.4-1 .94l-.27.32q-.27.32-.45.65l-.46.84q-.18.4-.24 1.04l-.05 1.21q.04.61.21 1.34.18.73.62 1.4.43.66 1.19 1.12.76.47 1.95.47.51 0 1.05-.11.55-.11 1.05-.27.51-.16.92-.32t.59-.24q.08-.04.16-.04m-13.13-.46q-.3-.86-.34-1.78l-.05-1.34q0-1.07.34-2.04t.92-1.77q.59-.81 1.34-1.42.75-.6 1.55-.93l-.02-.4q0-.27.04-.42.05-.18.13-.23.08-.05.18-.07.11-.02.31-.06 1.32-.27 2.69-.27.8 0 1.59.13.78.14 1.39.4-.86.27-1.65.59-.78.32-1.5.84-.72.51-1.31 1.24-.59.73-1.06 1.78l-.16.45q-.15.46-.22.95-.07.5-.07.96 0 1.04.35 2.07.36 1.02.95 1.95.59.93 1.34 1.74.74.81 1.43 1.4-1.39-.18-2.59-.66-1.2-.49-2.17-1.25-.96-.76-1.7-1.78-.72-1.02-1.06-2.22Z"></path></svg>